<?xml version="1.0" encoding="UTF-8" standalone="no"?>
<svg
   zoomAndPan="magnify"
   preserveAspectRatio="xMidYMid"
   version="1.0"
   viewBox="321.86 391.22 144.32 61.77"
   id="svg28"
   sodipodi:docname="logoold.svg"
   width="144.32001"
   height="61.77"
   inkscape:version="1.4 (86a8ad7, 2024-10-11)"
   xmlns:inkscape="http://www.inkscape.org/namespaces/inkscape"
   xmlns:sodipodi="http://sodipodi.sourceforge.net/DTD/sodipodi-0.dtd"
   xmlns="http://www.w3.org/2000/svg"
   xmlns:svg="http://www.w3.org/2000/svg">
  <sodipodi:namedview
     id="namedview28"
     pagecolor="#ffffff"
     bordercolor="#000000"
     borderopacity="0.25"
     inkscape:showpageshadow="2"
     inkscape:pageopacity="0.0"
     inkscape:pagecheckerboard="0"
     inkscape:deskcolor="#d1d1d1"
     inkscape:zoom="1.082251"
     inkscape:cx="80.388003"
     inkscape:cy="15.246001"
     inkscape:window-width="1366"
     inkscape:window-height="697"
     inkscape:window-x="-8"
     inkscape:window-y="-8"
     inkscape:window-maximized="1"
     inkscape:current-layer="svg28" />
  <defs
     id="defs1">
    <g
       id="g1" />
  </defs>
  <path
     style="fill:#000000;stroke:#000000;stroke-width:0.207994;stroke-dasharray:none;stroke-opacity:1"
     d="m 360.70349,442.07546 c -0.0439,-0.0715 -0.0189,-0.13018 0.0573,-0.13018 0.0755,0 0.13764,0.0584 0.13764,0.13018 0,0.0715 -0.0256,0.13003 -0.0573,0.13003 -0.0316,0 -0.0933,-0.0584 -0.13764,-0.13003 z m -0.71498,-5.3472 c -2.48214,-0.14988 -5.84978,-1.60817 -5.84978,-2.53315 0,-0.0984 -0.0488,-0.17922 -0.10879,-0.17922 -0.26017,0 -0.83308,-1.45384 -0.89963,-2.28296 -0.24295,-3.02629 1.86621,-5.40538 6.14318,-6.92945 0.53141,-0.18925 3.9489,-0.98607 5.06982,-1.18193 0.50046,-0.0876 1.4949,-0.27701 2.20989,-0.4213 0.71498,-0.14424 1.56321,-0.31044 1.88493,-0.36924 0.32172,-0.0586 1.03598,-0.25196 1.58719,-0.4293 0.55123,-0.17734 1.18676,-0.36296 1.41238,-0.41252 l 0.41018,-0.09 -0.0889,-0.66887 c -0.37314,-2.81456 -2.35227,-5.24285 -3.74443,-4.59418 -1.1531,0.53732 -1.67849,0.65437 -2.85647,0.63651 l -1.13495,-0.0172 -0.57218,-0.26068 c -0.60324,-0.27481 -0.73542,-0.46093 -0.72875,-1.02622 0.004,-0.68519 0.97843,-1.05997 2.74753,-1.06112 l 1.12668,-7e-4 0.60655,0.25995 c 1.02321,0.43866 1.49248,0.14095 2.55958,-1.62493 1.00563,-1.66389 1.40842,-2.84879 1.49457,-4.39717 0.1319,-2.36671 -0.41091,-4.20612 -1.63098,-5.52766 l -0.51717,-0.56021 -0.27179,0.14549 c -0.72573,0.38843 -4.28846,4.15665 -5.29069,5.59589 -0.22362,0.3211 -0.67192,0.96412 -0.99619,1.42883 -0.3243,0.46475 -0.98957,1.50911 -1.47837,2.32084 -0.48877,0.81167 -1.02134,1.68914 -1.18343,1.94991 -0.16211,0.26072 -0.34735,0.59662 -0.41163,0.74638 -0.0641,0.14972 -0.19634,0.35454 -0.29326,0.455 -0.15346,0.15901 -1.83665,2.95687 -2.80723,4.66648 -0.18245,0.32116 -0.5411,0.8966 -0.79726,1.27873 -0.25613,0.38211 -0.61197,0.94164 -0.79068,1.24348 -0.29356,0.49566 -1.18949,1.87783 -1.68993,2.60711 -0.10758,0.15627 -0.37842,0.51416 -0.60261,0.79529 -0.22417,0.28112 -0.6661,0.89141 -0.9821,1.35612 -1.45156,2.13481 -4.84027,5.32006 -6.60497,6.2084 -0.17868,0.0902 -0.559,0.30653 -0.84501,0.48124 -0.28594,0.17471 -0.60771,0.354 -0.71496,0.3984 -0.10758,0.0442 -0.31198,0.14595 -0.455,0.22578 -0.57435,0.32053 -1.45495,0.71787 -1.88489,0.85048 -7.56873,2.33462 -14.77178,0.22812 -16.8047,-4.91443 -1.9243,-4.86767 1.53438,-10.45238 7.05506,-11.39177 0.17865,-0.0306 0.4127,-0.0897 0.51998,-0.13176 0.65964,-0.25904 4.43164,-0.38868 5.33798,-0.18343 4.06226,0.91974 6.26324,3.55304 5.54767,6.63733 -0.23452,1.0107 -1.3891,2.98991 -1.74418,2.98991 -0.099,0 -0.21062,0.0796 -0.24802,0.17713 -0.0922,0.24097 -2.04477,1.20846 -2.91962,1.44685 -2.00482,0.5463 -4.57106,0.36888 -6.10064,-0.4218 l -0.97174,-0.50238 -0.55747,-0.83207 c -0.30661,-0.45767 -0.53719,-0.89298 -0.51244,-0.96744 0.0927,-0.27798 0.43755,-0.19862 0.58996,0.13583 0.54308,1.19198 1.81551,2.05402 3.39204,2.29803 l 0.92226,0.14282 1.27034,-0.14923 c 4.42176,-0.51878 7.59129,-4.3119 6.10628,-7.30775 -0.13568,-0.27382 -0.45285,-0.70671 -0.9999,-1.36495 -0.0596,-0.0715 -0.2396,-0.21774 -0.4005,-0.32499 -0.1607,-0.10758 -0.41729,-0.2865 -0.56992,-0.39838 -1.50884,-1.10595 -6.43,-1.55352 -8.46711,-0.77002 -4.18448,1.60931 -6.29243,3.60462 -7.07117,6.6932 l -0.26222,1.03996 0.063,1.10367 0.0629,1.10366 0.50625,1.04125 c 1.02417,2.10664 2.99591,3.80171 5.20561,4.4753 0.32174,0.0982 0.83944,0.2589 1.15043,0.35743 2.36325,0.74857 7.27148,0.44129 9.83417,-0.61571 0.21449,-0.0882 0.45246,-0.17431 0.52888,-0.19092 0.0761,-0.0172 0.46228,-0.18303 0.85749,-0.36999 0.39529,-0.187 0.78194,-0.33995 0.8593,-0.33995 0.0772,0 0.21794,-0.0737 0.31243,-0.16419 0.0943,-0.0902 0.34638,-0.27611 0.55979,-0.41294 1.01621,-0.65164 3.39179,-3.10333 4.63075,-4.77919 0.49138,-0.66463 0.94179,-1.26762 1.00091,-1.33997 0.17714,-0.21681 1.08136,-1.58822 1.8769,-2.84676 0.41076,-0.64984 0.91491,-1.44477 1.12035,-1.76655 0.2055,-0.3217 0.56449,-0.93206 0.79786,-1.35632 0.23335,-0.42428 0.47584,-0.83379 0.53893,-0.90998 0.0629,-0.0761 0.69911,-1.12121 1.41353,-2.32218 0.71438,-1.20099 1.64953,-2.70507 2.07806,-3.34242 0.42852,-0.6373 0.77918,-1.19227 0.77918,-1.23334 0,-0.11217 1.67319,-2.39398 2.20218,-3.00306 0.25448,-0.29304 0.73621,-0.87802 1.07044,-1.29995 1.27473,-1.60913 3.55448,-3.81559 5.69511,-5.51202 0.31572,-0.25022 0.77358,-0.6276 1.01736,-0.83858 l 0.44334,-0.38362 -0.30691,-0.25362 c -1.89497,-1.56584 -7.3467,-2.49093 -10.38153,-1.76152 -0.32174,0.0774 -0.70198,0.15933 -0.84494,0.18227 -0.14301,0.0229 -0.43553,0.10252 -0.64998,0.17755 -0.21452,0.0748 -0.77024,0.26563 -1.23496,0.42415 -2.14166,0.73067 -4.30675,2.09065 -6.02229,3.78271 -0.27365,0.26987 -0.5515,0.49068 -0.61746,0.49068 -0.0658,0 -0.11992,0.0502 -0.11992,0.11192 0,0.0612 -0.22866,0.3714 -0.50804,0.68884 -0.27942,0.3174 -0.61579,0.75497 -0.74748,0.97232 -0.13164,0.21733 -0.41347,0.65316 -0.62611,0.96857 -0.50553,0.74974 -0.71828,1.15031 -0.71828,1.35236 0,0.0904 -0.0813,0.23196 -0.18134,0.31479 -0.0999,0.0829 -0.22078,0.36038 -0.26886,0.61688 -0.0481,0.2565 -0.13809,0.56151 -0.20012,0.67784 -0.347,0.65117 -0.76259,2.92559 -0.67389,3.68778 l 0.0414,0.35644 0.80393,-0.0684 c 1.3226,-0.11205 3.06367,-0.66807 4.57735,-1.4615 0.9472,-0.4965 2.78835,-1.87096 2.79342,-2.0854 9.7e-4,-0.0482 0.17738,-0.28654 0.39153,-0.52956 1.4504,-1.6456 2.11516,-4.40093 1.43356,-5.94183 -0.37701,-0.85229 -0.0999,-1.09084 0.32397,-0.27855 1.70696,3.27412 -2.32903,9.18056 -7.22092,10.56738 -0.79187,0.22449 -1.97396,0.44133 -2.42659,0.44517 -0.69517,0.003 -0.72911,0.1395 -0.30027,1.18078 1.21396,2.94775 3.22622,4.10732 5.94458,3.42559 0.45616,-0.11458 0.8659,-0.17153 0.91052,-0.12684 0.1747,0.1747 -0.33658,0.46037 -1.24146,0.69379 l -0.94809,0.24451 -0.84967,-0.17471 c -2.17609,-0.4475 -3.87834,-2.17495 -4.34149,-4.40572 -0.16963,-0.81693 -0.17413,-0.82015 -1.23238,-0.87146 -0.48912,-0.0236 -1.23063,-0.20485 -1.98849,-0.4857 l -1.20847,-0.44784 -0.8448,-0.80819 -0.84475,-0.80821 -0.44913,-0.97203 c -2.57262,-5.56812 2.73037,-13.89858 9.3655,-14.71216 0.0715,-0.004 0.30546,-0.0892 0.51998,-0.17868 2.39775,-1.00037 9.87579,-1.39872 16.96437,-0.9037 7.67312,0.53582 15.41379,-0.0778 16.82783,-1.3343 0.0682,-0.0604 0.20052,-0.10967 0.29452,-0.10967 0.34691,0 1.6867,-0.98228 2.51406,-1.84319 0.83014,-0.86377 1.03277,-1.01406 1.03277,-0.76575 0,0.787 -3.07004,3.32376 -5.44136,4.4962 -1.22156,0.60396 -1.81016,0.82598 -2.81281,1.06092 -0.7644,0.17908 -2.95926,0.38789 -3.69978,0.35186 -2.70126,-0.13124 -3.71237,-0.21045 -4.88037,-0.3817 -0.71497,-0.10483 -1.50472,-0.22045 -1.75494,-0.25682 -0.25026,-0.0363 -0.6305,-0.096 -0.84497,-0.13258 -0.21453,-0.0363 -0.56552,-0.0893 -0.77996,-0.11809 -0.21453,-0.0284 -1.26747,-0.17018 -2.33991,-0.31482 -2.66716,-0.35966 -2.89972,-0.37886 -5.78481,-0.47693 l -2.5349,-0.086 -1.7237,0.20717 c -2.71863,0.32667 -6.13854,1.1196 -6.5895,1.52783 -0.0682,0.0616 -0.19301,0.11168 -0.2779,0.11168 -0.17735,0 -1.51691,0.63188 -2.4286,1.14556 -2.19982,1.23954 -4.65126,3.93929 -5.30667,5.84416 -0.12964,0.37669 -0.27957,0.7559 -0.3332,0.84268 -0.0535,0.0868 -0.11205,0.24655 -0.12951,0.35504 -0.0172,0.10835 -0.0909,0.46052 -0.16298,0.78225 -0.77868,3.48039 1.62999,7.04866 5.12259,7.58861 0.2145,0.0331 0.63859,0.0997 0.94246,0.1472 l 0.55249,0.0868 0.011,-0.36892 c 0.003,-0.20298 0.002,-0.69063 -0.002,-1.08387 -0.0188,-0.97217 0.28947,-2.60707 0.69779,-3.69085 0.33444,-0.88751 1.35724,-2.94107 1.52999,-3.07173 0.0494,-0.0373 0.24729,-0.30054 0.43994,-0.58499 1.64869,-2.43436 5.56581,-5.13506 8.57005,-5.90874 0.35747,-0.0921 0.91319,-0.24582 1.23497,-0.34172 1.33086,-0.39664 4.49984,-0.54965 6.30474,-0.30447 0.50046,0.0682 1.05619,0.14327 1.23495,0.16739 0.50547,0.0683 1.74388,0.45141 2.15953,0.66819 0.20634,0.1078 0.43891,0.19611 0.51659,0.19656 0.0775,4.3e-4 0.54566,0.2628 1.03994,0.58301 1.091,0.7067 1.02954,0.70399 1.962,0.0877 0.95106,-0.62868 2.1945,-1.31976 2.37462,-1.31976 0.22917,0 0.15283,0.39344 -0.0906,0.46636 -0.65138,0.19529 -2.76241,1.51393 -2.76241,1.7255 0,0.0481 0.26327,0.3623 0.58499,0.69808 0.32171,0.33577 0.58497,0.66393 0.58497,0.72929 0,0.0653 0.0897,0.19341 0.19967,0.28456 2.4439,2.02826 2.0874,8.92382 -0.546,10.5613 -0.0892,0.0554 -0.37309,0.29987 -0.63127,0.54337 l -0.46939,0.44269 0.30098,0.15936 c 0.47425,0.25108 1.95624,1.68303 2.40518,2.32402 0.37093,0.52959 1.08072,1.97114 1.08072,2.19494 0,1.06553 1.86464,-0.92021 2.07482,-2.20959 l 0.1135,-0.69555 -0.24916,-0.42987 c -0.3168,-0.54672 -0.31349,-0.67508 0.0172,-0.67508 0.64297,0 0.84156,1.86432 0.30586,2.87135 -0.12978,0.24395 -0.22585,0.48175 -0.21343,0.52839 0.0268,0.10164 -0.94124,0.999 -1.39507,1.29338 l -0.3211,0.20825 0.16004,0.96168 c 0.63725,3.82926 -1.41956,8.90137 -4.45769,10.9929 -0.3575,0.24607 -1.01936,0.70756 -1.47079,1.02541 -0.45144,0.31786 -0.86768,0.57796 -0.92492,0.57796 -0.0571,0 -0.25869,0.12152 -0.44758,0.27017 -1.01553,0.79878 -3.97199,1.40637 -6.19137,1.27234 z m 2.59993,-1.07001 c 1.02725,-0.32598 2.17662,-0.83688 2.74299,-1.21922 0.18589,-0.12538 0.50771,-0.34202 0.71498,-0.48102 0.84427,-0.56628 1.79901,-1.45739 2.49743,-2.3311 0.40662,-0.50873 0.83878,-1.03542 0.96032,-1.17052 0.12138,-0.13495 0.31913,-0.45706 0.4391,-0.71552 0.11991,-0.25844 0.28805,-0.55767 0.37362,-0.66495 0.65116,-0.81618 1.47689,-3.63826 1.58795,-5.42727 0.0928,-1.49413 0.11289,-1.46824 -0.82345,-1.05562 -0.34557,0.15219 -0.833,0.3237 -1.08323,0.38096 -0.25028,0.0572 -0.83522,0.19365 -1.29997,0.30309 -0.46473,0.10956 -1.45919,0.32042 -2.20988,0.46892 -0.75075,0.14829 -1.5765,0.32621 -1.83505,0.39507 -0.25854,0.0688 -0.66384,0.12498 -0.90074,0.12498 -0.23687,0 -0.61032,0.0554 -0.82989,0.12298 -0.47263,0.14562 -1.77215,0.5014 -2.41411,0.66092 -0.25026,0.0621 -0.63051,0.19928 -0.84497,0.30441 -0.21452,0.10527 -0.79132,0.37371 -1.28183,0.59655 -0.49054,0.22284 -0.97733,0.49062 -1.08177,0.59509 -0.10428,0.10428 -0.25072,0.18988 -0.32508,0.18988 -0.17395,0 -1.3452,0.96022 -1.89763,1.55545 -1.59588,1.71961 -1.80973,4.32706 -0.46168,5.62936 2.04804,1.97859 5.1101,2.64586 7.97289,1.73742 z m 3.76983,-19.10141 c 0.72717,-0.21517 1.29998,-0.53807 1.29998,-0.73282 0,-0.44315 -2.40314,-0.6674 -3.42416,-0.3195 -2.024,0.68963 -0.0156,1.68522 2.12418,1.05232 z m 11.04961,-19.00469 c 0,-0.0356 -0.0295,-0.065 -0.065,-0.065 -0.0359,0 -0.065,0.0293 -0.065,0.065 0,0.036 0.0294,0.0649 0.065,0.0649 0.0359,0 0.065,-0.0294 0.065,-0.0649 z"
     id="path30" />
  <text
     xml:space="preserve"
     style="font-style:normal;font-variant:normal;font-weight:normal;font-stretch:normal;font-size:52.7837px;line-height:1.4;font-family:PFChampionScriptPro;-inkscape-font-specification:PFChampionScriptPro;text-align:start;letter-spacing:0px;word-spacing:0px;writing-mode:lr-tb;direction:ltr;text-anchor:start;fill:#000000;stroke:#000000;stroke-width:0;stroke-linecap:round;stroke-linejoin:round;stroke-dasharray:none;stroke-opacity:1;paint-order:stroke markers fill"
     x="372.40192"
     y="421.06961"
     id="text30"><tspan
       sodipodi:role="line"
       id="tspan30"
       x="372.40192"
       y="421.06961"
       style="line-height:1.4;letter-spacing:0px;word-spacing:0px;stroke:none;stroke-width:0">ладин</tspan></text>
</svg>
