<?xml version="1.0" encoding="UTF-8" standalone="no"?>
<svg
   zoomAndPan="magnify"
   preserveAspectRatio="xMidYMid"
   version="1.0"
   viewBox="321.86 391.22 85.31999 35.77"
   id="svg28"
   sodipodi:docname="logo.svg"
   xml:space="preserve"
   width="85.32"
   height="35.77"
   inkscape:version="1.4 (86a8ad7, 2024-10-11)"
   xmlns:inkscape="http://www.inkscape.org/namespaces/inkscape"
   xmlns:sodipodi="http://sodipodi.sourceforge.net/DTD/sodipodi-0.dtd"
   xmlns="http://www.w3.org/2000/svg"
   xmlns:svg="http://www.w3.org/2000/svg"><sodipodi:namedview
     id="namedview28"
     pagecolor="#ffffff"
     bordercolor="#000000"
     borderopacity="0.25"
     inkscape:showpageshadow="2"
     inkscape:pageopacity="0.0"
     inkscape:pagecheckerboard="0"
     inkscape:deskcolor="#d1d1d1"
     inkscape:zoom="4"
     inkscape:cx="72.125"
     inkscape:cy="12.625"
     inkscape:window-width="1366"
     inkscape:window-height="697"
     inkscape:window-x="-8"
     inkscape:window-y="-8"
     inkscape:window-maximized="1"
     inkscape:current-layer="svg28" /><defs
     id="defs1"><inkscape:path-effect
       effect="powerstroke"
       message=""
       id="path-effect28"
       is_visible="true"
       lpeversion="1.3"
       scale_width="1"
       interpolator_type="CubicBezierJohan"
       interpolator_beta="0.2"
       start_linecap_type="zerowidth"
       end_linecap_type="zerowidth"
       offset_points="15,0.5"
       linejoin_type="extrp_arc"
       miter_limit="4"
       not_jump="false"
       sort_points="true" /><g
       id="g1" /><inkscape:path-effect
       effect="fill_between_many"
       method="bsplinespiro"
       autoreverse="false"
       close="false"
       join="false"
       linkedpaths="#path28,0,1"
       id="path-effect29"
       is_visible="true"
       lpeversion="0" /></defs><path
     style="fill:#000000;stroke:#000000;stroke-width:0.121;stroke-dasharray:none;stroke-opacity:1"
     d="m 344.94763,420.73484 c -0.0256,-0.0416 -0.011,-0.0757 0.0334,-0.0757 0.044,0 0.0801,0.034 0.0801,0.0757 0,0.0416 -0.015,0.0756 -0.0334,0.0756 -0.0184,0 -0.0543,-0.034 -0.0801,-0.0756 z m -0.41593,-3.11075 c -1.44402,-0.0872 -3.40313,-0.93555 -3.40313,-1.47365 0,-0.0573 -0.0284,-0.10428 -0.0633,-0.10428 -0.15136,0 -0.48466,-0.84577 -0.52338,-1.3281 -0.14132,-1.76055 1.08569,-3.1446 3.57382,-4.03123 0.30916,-0.11011 2.29729,-0.57365 2.94938,-0.68758 0.29115,-0.0508 0.86968,-0.16117 1.28562,-0.2451 0.41594,-0.0839 0.9094,-0.18061 1.09656,-0.21481 0.18717,-0.0342 0.60268,-0.14658 0.92334,-0.24974 0.32068,-0.10318 0.69042,-0.21116 0.82167,-0.23999 l 0.23862,-0.0524 -0.0516,-0.38912 c -0.21707,-1.63738 -1.36844,-3.05004 -2.17833,-2.67267 -0.67081,0.31258 -0.97647,0.38068 -1.66177,0.37028 l -0.66025,-0.01 -0.33286,-0.15164 c -0.35095,-0.15987 -0.42784,-0.26815 -0.42396,-0.59701 0.004,-0.39862 0.56921,-0.61664 1.59838,-0.61731 l 0.65545,-4.2e-4 0.35286,0.15125 c 0.59526,0.25517 0.86826,0.082 1.48905,-0.94532 0.58502,-0.96798 0.81933,-1.65729 0.86948,-2.55806 0.0767,-1.37684 -0.23907,-2.44691 -0.94884,-3.21573 l -0.30087,-0.3259 -0.1581,0.0846 c -0.42221,0.22596 -2.49483,2.41813 -3.07788,3.25542 -0.13009,0.18681 -0.39089,0.56087 -0.57954,0.83122 -0.18866,0.27037 -0.57568,0.87793 -0.86004,1.35015 -0.28435,0.47221 -0.59417,0.98267 -0.68848,1.13437 -0.0943,0.15168 -0.20206,0.34709 -0.23945,0.43422 -0.0374,0.0871 -0.11422,0.20625 -0.1706,0.26469 -0.0893,0.0925 -1.06848,1.72017 -1.63312,2.71473 -0.10615,0.18685 -0.31478,0.5216 -0.46381,0.74391 -0.149,0.22229 -0.35601,0.54782 -0.45998,0.72341 -0.17078,0.28834 -0.69199,1.09242 -0.98313,1.51668 -0.0625,0.0909 -0.22015,0.29912 -0.35056,0.46266 -0.13041,0.16355 -0.38752,0.51858 -0.57134,0.78893 -0.84445,1.24194 -2.81584,3.09497 -3.84247,3.61175 -0.10395,0.0524 -0.3252,0.17832 -0.49157,0.27997 -0.16638,0.10164 -0.35355,0.20594 -0.41593,0.23176 -0.0625,0.0257 -0.1815,0.0849 -0.2647,0.13135 -0.33414,0.18647 -0.84643,0.41763 -1.09655,0.49477 -4.40312,1.35818 -8.59351,0.13272 -9.77618,-2.85898 -1.11946,-2.83177 0.89264,-6.0807 4.1043,-6.62719 0.10395,-0.0177 0.2401,-0.0523 0.3025,-0.0767 0.38376,-0.15069 2.57813,-0.22611 3.10538,-0.1067 2.36324,0.53506 3.64368,2.067 3.22738,3.86129 -0.13643,0.58796 -0.80811,1.73937 -1.01468,1.73937 -0.0576,0 -0.12252,0.0463 -0.14428,0.10307 -0.0537,0.14017 -1.18956,0.70301 -1.69851,0.8417 -1.16631,0.31781 -2.65922,0.21459 -3.54906,-0.24539 l -0.56531,-0.29224 -0.32431,-0.48407 c -0.17837,-0.26625 -0.31252,-0.51951 -0.29811,-0.56281 0.0538,-0.16173 0.25456,-0.11555 0.34321,0.079 0.31595,0.69344 1.05618,1.19493 1.97334,1.33689 l 0.53651,0.0831 0.73903,-0.0868 c 2.57237,-0.3018 4.41624,-2.50846 3.55234,-4.2513 -0.0789,-0.1593 -0.26344,-0.41114 -0.58167,-0.79407 -0.0346,-0.0416 -0.13941,-0.12667 -0.233,-0.18906 -0.0935,-0.0625 -0.24278,-0.16667 -0.33155,-0.23175 -0.87779,-0.64339 -3.74069,-0.90377 -4.92578,-0.44799 -2.43433,0.93623 -3.66064,2.097 -4.11367,3.8938 l -0.15255,0.605 0.0367,0.64206 0.0367,0.64206 0.29451,0.60575 c 0.59583,1.22554 1.74287,2.21165 3.02839,2.60352 0.18716,0.0571 0.48834,0.15062 0.66926,0.20793 1.37482,0.43549 4.2302,0.25673 5.72105,-0.35817 0.12478,-0.0514 0.26323,-0.10142 0.30767,-0.11108 0.0444,-0.01 0.26894,-0.10648 0.49886,-0.21525 0.22995,-0.10879 0.45489,-0.19777 0.4999,-0.19777 0.045,0 0.12679,-0.0429 0.18176,-0.0955 0.0549,-0.0525 0.2015,-0.16064 0.32565,-0.24025 0.59119,-0.37909 1.97318,-1.80536 2.69396,-2.7803 0.28586,-0.38665 0.54788,-0.73743 0.58227,-0.77952 0.10307,-0.12613 0.62909,-0.92395 1.09189,-1.65612 0.23896,-0.37805 0.53226,-0.8405 0.65178,-1.02768 0.11955,-0.18716 0.32839,-0.54225 0.46415,-0.78906 0.13575,-0.24682 0.27683,-0.48505 0.31352,-0.52938 0.0366,-0.0443 0.40672,-0.65226 0.82233,-1.35094 0.4156,-0.69868 0.95961,-1.57368 1.20892,-1.94445 0.24929,-0.37075 0.45328,-0.69362 0.45328,-0.71749 0,-0.0653 0.97339,-1.39271 1.28113,-1.74706 0.14805,-0.17046 0.42829,-0.51077 0.62273,-0.75625 0.74157,-0.93609 2.06783,-2.21972 3.31313,-3.20662 0.18369,-0.14557 0.45004,-0.36511 0.59187,-0.48785 l 0.25791,-0.22317 -0.17855,-0.14754 c -1.1024,-0.91094 -4.27395,-1.44911 -6.03947,-1.02478 -0.18718,0.045 -0.40838,0.0927 -0.49156,0.10604 -0.0832,0.0133 -0.25335,0.0597 -0.37813,0.10329 -0.12479,0.0435 -0.44809,0.15453 -0.71844,0.24676 -1.2459,0.42506 -2.50546,1.21623 -3.50348,2.2006 -0.15918,0.157 -0.32083,0.28545 -0.35922,0.28545 -0.0384,0 -0.0698,0.0293 -0.0698,0.065 0,0.0356 -0.13301,0.21606 -0.29555,0.40073 -0.16255,0.18465 -0.35823,0.43919 -0.43484,0.56564 -0.0766,0.12643 -0.24053,0.37999 -0.36425,0.56348 -0.29408,0.43615 -0.41786,0.66921 -0.41786,0.78675 0,0.0525 -0.0474,0.13493 -0.10549,0.1831 -0.0581,0.0482 -0.12843,0.20967 -0.15642,0.35889 -0.0279,0.14921 -0.0804,0.32666 -0.11641,0.39433 -0.20186,0.37882 -0.44364,1.70197 -0.39204,2.14538 l 0.0241,0.20736 0.46769,-0.0397 c 0.76943,-0.0652 1.7823,-0.38865 2.66288,-0.85023 0.55105,-0.28884 1.62214,-1.08845 1.62509,-1.21319 6.7e-4,-0.0281 0.10318,-0.16669 0.22778,-0.30807 0.84377,-0.95732 1.2305,-2.56026 0.83397,-3.45667 -0.21933,-0.49583 -0.058,-0.63461 0.18848,-0.16204 0.99302,1.90471 -1.35494,5.34079 -4.20081,6.14759 -0.46066,0.13059 -1.14835,0.25675 -1.41166,0.25897 -0.40442,0.003 -0.42417,0.0812 -0.17469,0.68693 0.70622,1.71485 1.87687,2.38944 3.45828,1.99285 0.26537,-0.0666 0.50374,-0.0998 0.52969,-0.0738 0.10164,0.10164 -0.19581,0.26782 -0.72222,0.40361 l -0.55155,0.14225 -0.49429,-0.10164 c -1.26596,-0.26033 -2.25625,-1.26528 -2.52567,-2.56305 -0.0987,-0.47524 -0.10131,-0.47711 -0.71695,-0.50696 -0.28455,-0.0137 -0.71592,-0.11918 -1.15681,-0.28256 l -0.70304,-0.26054 -0.49146,-0.47016 -0.49144,-0.47018 -0.26128,-0.56549 c -1.49663,-3.23926 1.58841,-8.08552 5.44841,-8.55882 0.0416,-0.004 0.1777,-0.0519 0.3025,-0.10395 1.3949,-0.58197 5.74526,-0.81371 9.86906,-0.52573 4.46386,0.31172 8.96702,-0.0453 9.78964,-0.77624 0.0396,-0.0351 0.11665,-0.0639 0.17133,-0.0639 0.20181,0 0.98124,-0.57144 1.46258,-1.07228 0.48293,-0.50251 0.60082,-0.58992 0.60082,-0.44547 0,0.45782 -1.78602,1.9336 -3.16553,2.61566 -0.71066,0.35137 -1.05308,0.48053 -1.63636,0.6172 -0.4447,0.10417 -1.72157,0.22564 -2.15236,0.20469 -1.57147,-0.0764 -2.1597,-0.12243 -2.83918,-0.22205 -0.41594,-0.0609 -0.87537,-0.12823 -1.02094,-0.14942 -0.14559,-0.0211 -0.36679,-0.0559 -0.49156,-0.0771 -0.1248,-0.0211 -0.32898,-0.052 -0.45375,-0.0686 -0.1248,-0.0166 -0.73735,-0.099 -1.36125,-0.18314 -1.55161,-0.20923 -1.68691,-0.22039 -3.36532,-0.27746 l -1.47468,-0.05 -1.00277,0.12052 c -1.58157,0.19005 -3.57111,0.65134 -3.83346,0.88883 -0.0396,0.0359 -0.11229,0.065 -0.16166,0.065 -0.10318,0 -0.88248,0.36759 -1.41286,0.66644 -1.27975,0.72109 -2.70587,2.29167 -3.08717,3.39984 -0.0754,0.21915 -0.16264,0.43975 -0.19383,0.49023 -0.0312,0.0505 -0.0651,0.14342 -0.0754,0.20655 -0.01,0.0631 -0.053,0.2679 -0.0948,0.45507 -0.45301,2.02472 0.94825,4.10057 2.98008,4.41469 0.12478,0.0194 0.37151,0.0579 0.54828,0.0856 l 0.32141,0.0505 0.005,-0.21462 c 0.003,-0.11809 0.002,-0.40177 -0.002,-0.63055 -0.011,-0.56555 0.16839,-1.51665 0.40594,-2.14715 0.19456,-0.51631 0.78958,-1.71099 0.89007,-1.78699 0.0287,-0.0217 0.14387,-0.17484 0.25593,-0.34032 0.95915,-1.4162 3.23793,-2.98734 4.98566,-3.43743 0.20795,-0.0536 0.53125,-0.14301 0.71843,-0.19879 0.77425,-0.23075 2.61781,-0.31977 3.66782,-0.17713 0.29115,0.0396 0.61445,0.0834 0.71843,0.0974 0.29406,0.0397 1.0145,0.2626 1.25632,0.3887 0.12003,0.0627 0.25533,0.1141 0.30052,0.11435 0.0451,2.5e-4 0.31743,0.15288 0.605,0.33916 0.63469,0.41115 0.59892,0.40955 1.1414,0.0509 0.55326,-0.36572 1.27664,-0.76777 1.38142,-0.76777 0.13331,0 0.0889,0.22888 -0.0527,0.27131 -0.37893,0.11361 -1.60703,0.88073 -1.60703,1.00382 0,0.028 0.15315,0.21077 0.34032,0.40611 0.18716,0.19533 0.34031,0.38624 0.34031,0.42426 0,0.038 0.0523,0.11253 0.11616,0.16555 1.42174,1.17994 1.21434,5.19145 -0.31765,6.14406 -0.0518,0.0322 -0.21704,0.17445 -0.36723,0.31611 l -0.27308,0.25754 0.1751,0.0927 c 0.27589,0.14608 1.13806,0.97912 1.39922,1.352 0.21578,0.30808 0.62871,1.14672 0.62871,1.27691 0,0.61988 1.08476,-0.53533 1.20705,-1.28543 l 0.066,-0.40463 -0.14495,-0.25008 c -0.18431,-0.31806 -0.18238,-0.39273 0.01,-0.39273 0.37404,0 0.48957,1.08457 0.17793,1.67041 -0.0755,0.14192 -0.13139,0.28025 -0.12417,0.30738 0.0156,0.0591 -0.54757,0.58118 -0.81159,0.75244 l -0.18679,0.12114 0.0931,0.55948 c 0.37071,2.22768 -0.82583,5.17838 -2.59327,6.39514 -0.20798,0.14316 -0.59301,0.41162 -0.85565,0.59654 -0.26261,0.18493 -0.50476,0.33622 -0.53807,0.33622 -0.0332,0 -0.15049,0.0706 -0.26038,0.15717 -0.59078,0.46471 -2.31071,0.81817 -3.60185,0.74019 z m 1.5125,-0.62247 c 0.5976,-0.18964 1.26627,-0.48685 1.59575,-0.70929 0.10813,-0.073 0.29535,-0.19896 0.41594,-0.27983 0.49116,-0.32943 1.04658,-0.84784 1.45287,-1.35613 0.23657,-0.29594 0.48797,-0.60236 0.55869,-0.68095 0.0706,-0.0785 0.18565,-0.26589 0.25543,-0.41625 0.0698,-0.15036 0.16758,-0.32442 0.21736,-0.38683 0.37883,-0.47482 0.85918,-2.11658 0.9238,-3.15733 0.054,-0.8692 0.0657,-0.85415 -0.47905,-0.61412 -0.20103,0.0885 -0.4846,0.18832 -0.63017,0.22164 -0.1456,0.0333 -0.4859,0.11265 -0.75625,0.17632 -0.27037,0.0637 -0.8489,0.18641 -1.28562,0.27278 -0.43675,0.0863 -0.91713,0.18978 -1.06754,0.22982 -0.15041,0.04 -0.3862,0.0727 -0.52401,0.0727 -0.13779,0 -0.35505,0.0322 -0.48279,0.0715 -0.27495,0.0847 -1.03094,0.29172 -1.40441,0.38452 -0.1456,0.0362 -0.3668,0.11592 -0.49157,0.17709 -0.12479,0.0613 -0.46035,0.2174 -0.74571,0.34705 -0.28537,0.12963 -0.56856,0.28541 -0.62931,0.34618 -0.0607,0.0607 -0.14586,0.11047 -0.18912,0.11047 -0.1012,0 -0.78258,0.5586 -1.10395,0.90488 -0.92841,1.00039 -1.05282,2.51728 -0.26859,3.2749 1.19145,1.15105 2.97282,1.53923 4.63825,1.01074 z m 2.19312,-11.11229 c 0.42302,-0.12518 0.75625,-0.31303 0.75625,-0.42632 0,-0.25781 -1.39802,-0.38827 -1.992,-0.18588 -1.17747,0.4012 -0.009,0.98039 1.23575,0.6122 z m 6.42813,-11.05604 c 0,-0.0208 -0.0171,-0.0377 -0.0377,-0.0377 -0.0208,0 -0.0377,0.017 -0.0377,0.0377 0,0.0208 0.017,0.0377 0.0377,0.0377 0.0208,0 0.0377,-0.017 0.0377,-0.0377 z"
     id="path30" /><text
     xml:space="preserve"
     style="font-style:normal;font-variant:normal;font-weight:normal;font-stretch:normal;font-size:30.7071px;line-height:1.4;font-family:PFChampionScriptPro;-inkscape-font-specification:PFChampionScriptPro;text-align:start;letter-spacing:0px;word-spacing:0px;writing-mode:lr-tb;direction:ltr;text-anchor:start;fill:#000000;stroke:#000000;stroke-width:0;stroke-linecap:round;stroke-linejoin:round;stroke-dasharray:none;stroke-opacity:1;paint-order:stroke markers fill"
     x="351.75317"
     y="408.51465"
     id="text30"><tspan
       sodipodi:role="line"
       id="tspan30"
       x="351.75317"
       y="408.51465"
       style="line-height:1.4;letter-spacing:0px;word-spacing:0px;stroke:none;stroke-width:0">ладин</tspan></text></svg>
